<svg xmlns="http://www.w3.org/2000/svg" viewBox="0 0 120 120">
  <defs>
    <linearGradient id="g" x1="0" x2="1" y1="0" y2="1">
      <stop offset="0%" stop-color="#b594f9" />
      <stop offset="100%" stop-color="#6f3ef4" />
    </linearGradient>
    <filter id="s" x="-20%" y="-20%" width="140%" height="140%">
      <feDropShadow dx="0" dy="2" stdDeviation="3" flood-color="#6f3ef4" flood-opacity="0.25" />
    </filter>
  </defs>
  <rect x="8" y="8" width="104" height="104" rx="28" fill="url(#g)" />
  <g filter="url(#s)">
    <path fill="#fff" d="M60 28c-11.6 0-21 9.4-21 21v6.2c0 2.1-.8 4.1-2.3 5.7l-4 4c-5.3 5.3-5.3 13.9 0 19.2 2.6 2.6 6 4 9.6 4H60c11.6 0 21-9.4 21-21V49c0-11.6-9.4-21-21-21Zm0 10c6.1 0 11 4.9 11 11v18c0 6.1-4.9 11-11 11H42.3c-.9 0-1.7-.3-2.3-1-.6-.6-1-1.5-1-2.3 0-.9.3-1.7 1-2.3l4-4c3.1-3.1 4.8-7.3 4.8-11.5V49c0-6.1 4.9-11 11-11Zm0 8c-1.7 0-3 1.3-3 3v10c0 1.7 1.3 3 3 3s3-1.3 3-3V49c0-1.7-1.3-3-3-3Z"/>
  </g>
</svg>
